<svg xmlns="http://www.w3.org/2000/svg" viewBox="0 0 782.91 888.3"><defs><style>.cls-1{fill:#fff;}.cls-2{fill:#f5aeb3;}.cls-3{fill:#1d1d1b;}</style></defs><g id="Calque_3" data-name="Calque 3"><path class="cls-1" d="M782.18,521c-.74,1.28-1.47,2.49-2.19,3.67a7.05,7.05,0,0,0-4.45-3.83l.11-.12c-6.07-4.22-12.18-4.91-18.66-.67a25.16,25.16,0,0,0,1.94,1.84,43.77,43.77,0,0,0-7.86,4.42,11.66,11.66,0,0,0-5.29,1.81c-6,4.44-11.81,9.11-17.73,13.65-7.21,5.55-14,11.81-21.81,16.37-8.09,4.74-12.36,16.62-6.71,24.18,1.48,2,3.89,3.28,6.19,4.65a15,15,0,0,0,3.8,4.22L704,593.51l0-.11A54,54,0,0,0,679.41,598c-25.45,11.12-51.06,21.91-76.26,33.58-11.57,5.36-22.52,12.17-33.42,18.87-11.23,6.91-15.72,17.75-15.66,30.83l-18.7-.77c.43-.25.86-.51,1.29-.8l-67.35-12.19-.05-.9c1.47-.56,2.94-1.1,4.39-1.69,18.79-7.68,38-14.56,56.29-23.19,47.48-22.35,85.66-55.93,115.47-99A384.82,384.82,0,0,0,705,405.69c8.07-36.39,10.64-73.11,6.73-110.25-6-56.79-25.29-108.72-57.07-156a305.41,305.41,0,0,0-83.73-84.11c-42.39-28.47-89.39-45-139.75-51.82-57.82-7.83-114.66-2.2-170.45,14.65-43.06,13-83.28,31.87-120,57.89-35.58,25.19-65.85,55.7-89.81,92.14A305.13,305.13,0,0,0,5.13,282.87a321.45,321.45,0,0,0,.81,118.71A316.06,316.06,0,0,0,51.18,513.43,364.92,364.92,0,0,0,133,603.06c23.68,18.65,49.06,34.5,76.6,46.59,16,7,32.7,12.32,49,18.64,2,.77,4.31,2.79,4.92,4.72,3.08,9.83,5.42,19.89,8.52,29.71a62.72,62.72,0,0,0,2.19,6l-3.82,2.63-.34-.57c-5.22,2-10.94,3.17-15.56,6.1-17,10.79-33.71,22-48.34,36.09-18,17.31-32.4,37.5-46.53,57.91-8.62,12.45-17.54,24.71-22.43,39.33-1.95,5.81-1.57,11.22,1.42,16.34,6.13,10.51,14.84,17.85,26.89,20.7,2.27.53,4.61.71,6.92,1l.48-1.23-6-4.63c3.2.66,7.09,1.32,11.61,1.86A41.79,41.79,0,0,0,195.85,888c17.48.36,34.38-3.23,51.3-7.08,30.48-6.95,57.46-21.69,84.11-37.21,3.28-1.91,6.41-4.11,10.33-6.69,2.76-.88,5.76-1.75,9-2.59,24.13,7.32,86.65-27.4,90-48l-2.18,1.46c.18-2.3-2.08-3.78-12.45.29l-.12-.34-35.19,9.13q-4.62-.58-10.41-1.87c-.12-.12-.23-.25-.35-.36-9.77-9.35-22.36-12.08-35-14.18-2.74-.46-6.61,1.44-8.86,3.47-4.2,3.79-4.34,16.84-1.06,22.38-1.07,2.34-3.41,5.12-8.12,8.06.31-.29.61-.59.91-.9-4.26.58-7.26.78-10.14,1.43-13.47,3.05-26.76,7.23-40.38,9.1s-27.53,2.61-41.36,3.48c6.36-2.58,14.68-6,23.83-10,29.68-3.12,90.78-42.35,100.55-65.21l9.77-8.29c11.23,3.86,22.86,5.92,34.75,7.16,20.75,2.15,41.32.17,61.72-3.15,30.56-5,61-10.54,91.48-16.07a38.51,38.51,0,0,0,20-10.49l-2.16.09,7.63-4.28A35.89,35.89,0,0,0,604,709.89c8.08-6.13,16.24-12.26,23.71-19.09q37.25-34,74-68.63c4.64-4.34,8.57-9.44,12.83-14.19-.58.06-1.15.13-1.7.22l7.64-4.66.69.91c6.42-3.63,13.32-6.62,19.18-11,17.7-13.25,30.43-30.57,39.18-50.83C782.33,536.12,783.92,529.41,782.18,521Z"/></g><g id="Calque_2" data-name="Calque 2"><path class="cls-2" d="M356.86,4.67C163.33,22.63,4.65,153.05,4.65,340.36c0,186.74,175,340.23,349.65,339.37A41,41,0,0,1,375,668.55c8.07-1.74,16.84-1,25.24-.42,11.49.76,23,1.51,34.47,2.58C592.83,635.58,710.9,502,710.9,340.56,710.9,153.24,569.79-15.09,356.86,4.67ZM321.52,617.91a8.44,8.44,0,0,1-6,3c-12.94-.42-25.86-1.26-38.79-2a16.16,16.16,0,0,1-3.83-1.09c-3.77-1.21-5.66-3.11-4.7-7.7,1.55-7.41,2.28-15,3.35-22.41,19.16,12,39.08,18.27,62.48,12.12C329.75,606.11,325.89,612.21,321.52,617.91ZM654.33,296.64c-9.47,26-25.37,8.87-25.37,8.87-21.1-6.42-49.84,33.33-49.84,33.33-38.52,42.8-100,63.59-100,63.59-13.45,25.37,4.59,35.46,4.59,35.46,44.33,20.18,39.44,55.65,39.44,55.65,1.52,21.7-45.25,39.44-45.25,39.44-14.07-1.84-39.44,16.2-39.44,16.2-12.84,33.63-3.67,47.39-3.67,47.39l-30.22-16c-22.37-.55-25.42-19.81-33.37-21.65a132.67,132.67,0,0,0-15.9-2.75l-8.26,19.26c-32.1-4.58-46.77-43.72-46.77-43.72l-43.11,7c-18,9.18-87.14,9.18-87.14,9.18-15.28-1.53-16.51-9.18-16.51-9.18l-69.4-117.4L86,405.18l32.41-70.32c8.86,3.67-.92,49.22-.92,49.22l36.69-19.87c4,18-50.76,43.42-50.76,43.42l.62,11.31,1.52,6.72,26.91,35.16,54.11,55.95,48-12.53c-10.7-6.12-13.75-24.16-13.75-24.16L223,466l-1.53-19.57-16.51-10.09L200.32,448l-8.25-3.67-20.18-24.15L175,380.42l13.14-30.88,27.52-18.65,49.53-2.75c4.28-7.65,16.51-6.73,16.51-6.73a14.43,14.43,0,0,1,8-11.31c37.91-49.84,99.66-11.62,99.66-11.62-4.28,17.73,18.65,9.78,18.65,9.78,38.53-1.53,68.49,65.12,68.49,65.12,47.69-39.74,131.16-85.3,131.16-85.3,40.35-17.12,29.65-67.87,29.65-67.87,32.11,19,9.79,60.54,9.79,60.54,37-16.51,40.66-2.14,40.66-2.14C661.67,282.28,654.33,296.64,654.33,296.64Z"/></g><g id="Calque_1" data-name="Calque 1"><path class="cls-3" d="M361.48,457c-2.4-5.27-6.94-9.66-12.12-13.56-3-2.3-6.28-4.48-8.85-7.25-4.46-4.8-4-9.67,1.71-15.28-2.3,7.39,2.13,10.18,6.45,13.11,10.4,7.08,19.17,15.83,23.51,27.76,2.74,7.53,4,15.67,5.17,23.66.37,2.6-1.79,5.56-3.37,8.21-.62-10.53-7.63-17.24-13.32-24.57-3.78-4.85-8-9.33-12.75-14.74-2.24,3.92-3.33,6.11-4.68,8.13-8.76,13.17-20.5,21.8-36.71,22.78-10,.61-19.43-8-19.44-17,3,1.78,6.09,3.56,9.13,5.42,9,5.55,17.67,3.53,25.74-1.84,7.87-5.23,15.32-11.1,23.74-17.25-6-4.36-11.74-8.68-17.66-12.76-.84-.58-2.51-.09-3.77.09-7.35,1-11.89-3-11.91-10.59a5,5,0,0,0-1-2.57c-4.34-6.28-3.93-12.83-1.14-19.49,5.4-12.92.85-23.09-12.78-27.85,3.69-2.72,7.39-1.87,11-.52a20.05,20.05,0,0,1,11.07,26.78c-.88,2-1.91,3.89-2.65,5.92-2.09,5.67-1.1,10.27,3.69,13.8C334.21,437.47,348.1,447.33,361.48,457Z"/><path class="cls-3" d="M287.94,315.57c-2.67-6.66-.66-12.71,4.36-16.63,6.33-4.94,13.3-9.79,20.79-12.34,23.44-8,46.93-5.43,70.06,2.26a31.09,31.09,0,0,1,5,2.31c6.39,3.47,7.48,6.09,5.34,13.31,6.12.48,12.18.72,18.18,1.48a77.71,77.71,0,0,1,35,13.59c7.19,5,12.9,11.41,15.17,19.86,3.56,13.26,10.8,24.16,19.55,34.36,2.68,3.13,5,6.59,7.45,9.89l-.8,1.12c-4.12-2.51-8.62-4.55-12.27-7.61-8.41-7.06-15.62-15.54-18.18-26.31-5.11-21.53-20.47-31.1-40-35.65-8.5-2-17.49-1.77-26.25-2.67-7.08-.73-9.05-4.13-6.27-10.52.33-.73.65-1.47,1.24-2.83-16.83-8.15-34.45-10.35-52.56-8.82C315.1,291.94,299,298.63,287.94,315.57Z"/><path class="cls-3" d="M196.06,441.56c6.65-10.15,13.78-10.7,22.24-2,11.21,11.54,12.4,30.21,2.44,41.39-1.71-12.23,1.53-25.5-8.1-35.65-1.69-1.78-4.18-2.81-6.86-4.54a39,39,0,0,0-.88,4.24c-.52,6.8-3.34,8.56-9.48,5.32-15.2-8-24.61-20.76-26.32-37.72-2.28-22.55,3.7-43.63,15.69-62.77,9.12-14.56,23.82-20.61,40-22.52,10.28-1.22,20.84-.35,31.26,0,7,.26,7.52.43,12.17-4.06.66,4.76-1.07,8.33-5.16,9.65a28.05,28.05,0,0,1-12.11,1.43c-12.33-1.75-24.22-.27-36,3.1-11.47,3.27-20.43,9.95-25.9,20.48-8.79,16.95-14.2,34.89-12.19,54.25C178.15,425.1,185.28,434.58,196.06,441.56Z"/><path class="cls-3" d="M512.53,510.27c6.19-5.52,6.43-12.08,6.49-18.62.14-16.74-5.17-30.5-20.46-39.54-8.28-4.9-15.86-11-23.64-16.72C468,430.31,466.63,425,469.86,417a11.1,11.1,0,0,1,.66-1.34c6.58-11.26,7.22-14.05-4.57-26.42-16.42-17.21-37.57-25.28-59.48-32.18-5.74-1.81-11.27-4.29-16.9-6.46l.57-2.42c7.43.94,15.14.92,22.25,3,24.13,7,46.4,17.57,63.17,37.29,8.69,10.22,9.47,16.4,3.12,28.06-4.26,7.82-3.74,9.56,3.56,14.7,9.67,6.8,19.63,13.27,28.71,20.79,14,11.61,17.16,27.66,15.45,44.78C525.59,505,520.88,509,512.53,510.27Z"/><path class="cls-3" d="M453.23,453.15c10.49-2.18,19,1.34,24.44,10.73,10.24,17.59,14.73,36.63,12.29,57-1.1,9.22-7.4,14.12-15.5,17.15a50,50,0,0,1-7.65,2.25c-11.39,2.32-21.55,6.8-29.12,16a6,6,0,0,1-1.55,1.22c-.23.15-.61.08-.92.1.95-11.3,6.58-18.82,17.68-22,5.92-1.68,11.81-3.45,17.71-5.19,7.4-2.18,11.38-7,11.66-14.85a89.26,89.26,0,0,0-9.82-44.33C468.41,463.38,461.66,457.94,453.23,453.15Z"/><path class="cls-3" d="M186.47,516.24c4.74-2.26,9.26-5.37,14.25-6.63,19.63-4.94,39.39-9.39,59.15-13.79a38.92,38.92,0,0,1,10.94-.61c14.07,1,27.34-1.21,40.08-7.69,7.41-3.76,15.8-1.87,24.2,4.53-15.25-1.8-26.93,5.08-39.35,9.41a25.86,25.86,0,0,1-9.37,1.08c-23.4-1-46,2.95-68.25,10.09a148.81,148.81,0,0,1-19.41,4.47c-3.84.69-7.84.5-11.77.71Z"/><path class="cls-3" d="M84.36,417.48c7,11.66,13.78,23.46,21,35,13.47,21.44,27.23,42.69,40.79,64.07,4.83,7.61,8.58,15.68,8.78,25.35-3.18-3.75-6.85-7.18-9.45-11.29q-29.18-46-57.94-92.23c-3.8-6.08-6.12-12.63-3.69-19.95A2.57,2.57,0,0,1,84.36,417.48Z"/><path class="cls-3" d="M282.75,381.81c-8.24-1-14.86-4.8-19.54-12.38a23.06,23.06,0,0,0-8.14-7.52c-3.67-2.07-5.53-.47-5.52,3.81,0,1.83.27,3.66.22,5.48-.24,7.94-5.27,12.4-13.13,11.05-3.68-.64-7.26-2.3-10.69-3.91-4.81-2.27-9.32-5.17-14.16-7.36-9.1-4.11-13.65-2.66-18.49,5.37-3.11-7.67,1-15,9.33-14.87,5.26.09,10.68,2.06,15.65,4.09,5.82,2.37,11.1,6,16.88,8.55,5.26,2.27,7,.77,7-4.87-.09-9.69,1.71-13.56,7.09-15.27s14,2.09,18.25,7.79C272.48,368.49,277.62,375.09,282.75,381.81Z"/><path class="cls-3" d="M105.54,418.72c8.35,15.78,20.29,28.65,32.66,41.21,11.56,11.74,23.2,23.42,34.29,35.59,4.11,4.51,6.73,10.37,10,15.62l-1.43,1.16c-3.66-3-7.66-5.59-10.93-8.92-17.28-17.56-34.54-35.15-51.42-53.09a78.75,78.75,0,0,1-12.33-17.38c-2-3.94-1.78-9.09-2.56-13.7Z"/><path class="cls-3" d="M369.14,558.18c4.88-.68,9.78-1.25,14.64-2.09a40.93,40.93,0,0,0,9.14-2.28c12.07-5.13,14.46-10.56,11-23.1-2.07-7.52-4.17-15.08-5.51-22.75-1.19-6.79,1.44-12.57,7.5-17.76-2.79,12.54,1.37,23.25,4.17,34.14.54,2.09,1.26,4.14,1.83,6.22,3.56,12.86,1.6,18.68-8.82,26.31-10.61,7.76-23.64,9-32.76,3.09a11.7,11.7,0,0,0-1.86-.76Z"/><path class="cls-3" d="M419.53,530.57c11.11,10.23,11.38,21.13,1.53,30.57-2.75,2.64-5.8,5-8.71,7.45S409,573.88,411,577c5,7.69,11.53,13.87,20.73,15,4.74.58,9.87-2,14.45-3.08-.51,6.8-8.21,13-16.13,11-11-2.83-20-9-25.44-19.29-3.42-6.42-2.59-11.51,2.55-16.73a47.46,47.46,0,0,1,6.41-5.53c7.13-5,9.48-11.65,7.45-20C420.46,536.1,420.14,533.81,419.53,530.57Z"/><path class="cls-3" d="M117.43,331.58c4.24,6.89,4.8,13.34,2.81,19.54A87.23,87.23,0,0,1,112,369.71c-7.58,12.51-15.84,24.61-23.84,36.87-.61.93-1.33,1.78-2.66,3.53-.2-8,.42-14.81,4-20.95a139.52,139.52,0,0,1,8.21-12.51C107.43,363.41,114.71,349.08,117.43,331.58Z"/><path class="cls-3" d="M280,449.16c-14.65-14.8-12.17-56.52,4.21-63.54-2,10.26-5.11,20.73-5.82,31.36S279.35,438.43,280,449.16Z"/><path class="cls-3" d="M117.43,384.35c10.27-8.49,19.69-16.42,29.32-24.08,1.59-1.26,5.25-2.45,6-1.7a9.27,9.27,0,0,1,2.58,6.78c-1.22,9.86-8.33,15.4-16.73,20,1.34-3.19,2.68-6.38,4.54-10.77C135.09,380.86,127.67,385.28,117.43,384.35Z"/><path class="cls-3" d="M228.34,498c-2.52-8.49-2.43-16.37,3.58-23.16,7.55-8.52,10.45-18.93,12.4-31,4.92,8.88,5.77,16.78,1.58,24.74-2,3.8-4.91,7.11-7.11,10.83C235.26,485.35,232,491.46,228.34,498Z"/><path class="cls-3" d="M316.61,350.33c-19.44,2-24.94-.07-26.08,27.22a19.11,19.11,0,0,1-.86-27.45C297.2,342.38,309,342.48,316.61,350.33Z"/><path class="cls-3" d="M290.77,448.37c.73-4,1.12-7.11,1.9-10.13s1.87-5.64,2.82-8.46c-9.93-3-12.44-7-9.29-14.79,4.48,3.26,9.32,6.19,13.33,10,1.58,1.51,1.74,5,1.77,7.56C301.38,439.64,298.12,444.84,290.77,448.37Z"/><path class="cls-3" d="M318.57,459.18c-2.37,3.91-5.75,7.43-10.4,7a68.12,68.12,0,0,1-17.89-4.51c-2-.79-2.91-4.53-4.73-7.63,5.78-.34,9.48.43,12,4.63.55.93,2.64,1.48,3.92,1.34,5.55-.62,11.05-1.56,16.57-2.38Z"/><path class="cls-3" d="M285.75,391.65c9.54,2.33,13.66,8.27,12.14,17C290.56,405.29,287.41,401,285.75,391.65Z"/><path class="cls-3" d="M488.19,363.35c4.25-4.68,8.05-9.88,12.83-14a393.6,393.6,0,0,1,88.33-57c8.49-4,17.16-7.61,25.75-11.4l1.12,1.84c-1.8,1.88-3.38,4.09-5.47,5.56-5.29,3.73-10.52,7.75-16.31,10.55a455.78,455.78,0,0,0-87.11,55.38c-4.24,3.4-9.3,5.79-14,8.56a29.6,29.6,0,0,1-4,1.65Z"/><path class="cls-3" d="M620.23,304c-2.33,2.33-3.91,4-5.54,5.55-17.43,16.9-34.41,34.31-52.49,50.49-10.09,9-21.8,16.32-33.18,23.8-7.52,4.94-14.73,5.86-22,4.25,4.37-2.79,8.17-5.57,12.27-7.78C544.41,366.8,565,347.82,584.1,327a193.21,193.21,0,0,1,16.23-15.5C605.67,306.87,612.05,304.38,620.23,304Z"/><path class="cls-3" d="M625.61,302.85c3.43,1.21,7,2.17,10.25,3.68,4.67,2.15,7.77.38,10-3.54,1.79-3.18,3-6.67,4.75-9.89,6.46-12.09,25.71-20,38.31-15.89a32,32,0,0,1,3.08,1.44c-6.46,2.54-12.51,5-18.62,7.28-8.67,3.24-15.68,8.11-18.18,17.66a6,6,0,0,1-.59,1.38c-3.19,5.7-7.11,11.33-14.23,10.95C632.72,315.52,628.71,309.3,625.61,302.85Z"/><path class="cls-3" d="M633.82,212.42c14.75,13.64,7.65,57.32-11.71,67.09,3.37-11.22,7.67-21.89,9.59-33S633.21,223.77,633.82,212.42Z"/><path class="cls-3" d="M644.57,283.65q10.59-31.18-2.47-61.27c6.57,1.05,11.8,8.12,14.28,19C660.82,260.84,656.9,275.7,644.57,283.65Z"/><path class="cls-3" d="M271.08,712.51c-5.86,4.74-11.45,9.85-17.63,14.14-16.7,11.59-33.54,23-47.52,37.93-21.46,23-39.62,48.5-55.43,75.55-8.88,15.2-10.78,21.24,7.94,35.76q7.22,5.6,14.46,11.18l-.48,1.23c-2.31-.34-4.65-.52-6.92-1-12.05-2.85-20.76-10.19-26.89-20.7-3-5.12-3.37-10.53-1.42-16.34,4.89-14.62,13.81-26.88,22.43-39.33,14.13-20.41,28.52-40.6,46.53-57.91,14.63-14.05,31.34-25.3,48.34-36.09,4.62-2.93,10.34-4.12,15.56-6.1Z"/><path class="cls-3" d="M172.65,880.79c5.37-.38,10.74-1.22,16.09-1.06,30.69,1,59.9-6,88-17.34,14.14-5.7,27.42-13.53,41-20.65,7.38-3.88,14.91-6.52,24.83-5.38-4.39,2.86-7.74,5.25-11.29,7.32-26.65,15.52-53.63,30.26-84.11,37.21-16.92,3.85-33.82,7.44-51.3,7.08C187.61,887.81,179.8,886.1,172.65,880.79Z"/><path class="cls-3" d="M182.64,847.54c1.88-10.95,8.08-16,17-17.35,8.37-1.26,16.91-1.32,25.37-2,17.44-1.31,35-1.85,52.27-4.22,13.62-1.87,26.91-6,40.38-9.1,2.88-.65,5.88-.85,10.14-1.43A45,45,0,0,1,309.58,825c-19.89,6.93-40.55,9-61.42,9.89-14.31.64-28.62,1.44-42.88,2.63C197.23,838.23,189.64,840.77,182.64,847.54Z"/><path class="cls-3" d="M253,817.45c5.37-2.87,10.5-6.35,16.14-8.5,26.7-10.17,49.31-26.61,70.89-44.85,6.46-5.46,13.81-9.86,21.1-14.23C354.39,774.07,279.69,821.11,253,817.45Z"/><path class="cls-3" d="M349,833.83c16.54-6.41,33.21-11.32,48.37-19.17s28.59-18.53,43.28-28.31C437.16,807.48,371.76,843.35,349,833.83Z"/><path class="cls-3" d="M381.88,798.61c-10.5-3-21-5.89-31.51-8.9-7.44-2.13-7.63-2.06-10.33,5.23-1.49,4-3.05,8-4.59,12.09-3.74-5-3.79-19.12.6-23.08,2.25-2,6.12-3.93,8.86-3.47,12.63,2.1,25.22,4.83,35,14.18a37.68,37.68,0,0,1,2.47,2.87C382.21,797.89,382.05,798.25,381.88,798.61Z"/><path class="cls-3" d="M426.41,789.43c-9.62,10.7-25.16,14.39-36,7.52l35.44-9.19Z"/><path class="cls-3" d="M704.57,594.83c-5.26,2.77-10.37,5.87-15.8,8.26-28.16,12.4-56.52,24.36-84.56,37a204.2,204.2,0,0,0-27.75,15.73c-4.58,3-8.24,7.6-11.83,11.87s-6.77,9.23-10.56,13.57c-.06-13.08,4.43-23.92,15.66-30.83,10.9-6.7,21.84-13.51,33.42-18.87,25.2-11.67,50.81-22.46,76.26-33.58A54,54,0,0,1,704,593.4Z"/><path class="cls-3" d="M714.54,608c-4.26,4.75-8.19,9.85-12.83,14.19q-36.8,34.51-74,68.63c-7.47,6.83-15.63,13-23.71,19.09a36.16,36.16,0,0,1-22.28,7.37c3.67-3.21,7-7,11-9.55,20.31-12.88,36.71-30.23,54.09-46.49,16-15,32.37-29.74,48.69-44.46C700.8,612.07,706.87,608.73,714.54,608Z"/><path class="cls-3" d="M782.18,521c1.74,8.38.15,15.09-2.65,21.58-8.75,20.26-21.48,37.58-39.18,50.83-5.86,4.39-12.76,7.38-19.18,11l-1.37-1.82c3.76-4,7.07-8.54,11.35-11.85a135.4,135.4,0,0,0,42.64-55C775.84,530.91,779,526.56,782.18,521Z"/><path class="cls-3" d="M707.77,588.3c-2.79-1.95-6.3-3.36-8.24-5.95-5.65-7.56-1.38-19.44,6.71-24.18,7.8-4.56,14.6-10.82,21.81-16.37,5.92-4.54,11.74-9.21,17.73-13.65a12.07,12.07,0,0,1,5.52-1.85c-10.51,16.68-24,30-41.19,39.53-4.85,2.68-7,12.79-3.51,18.2a27.14,27.14,0,0,0,2.19,2.62Z"/><path class="cls-3" d="M775.65,520.75c-5.58,6.48-12.08,6.3-18.66-.67C763.47,515.84,769.58,516.53,775.65,520.75Z"/><path class="cls-3" d="M711.69,295.44c-6-56.79-25.29-108.72-57.07-156a305.41,305.41,0,0,0-83.73-84.11c-42.39-28.47-89.39-45-139.75-51.82-57.82-7.83-114.66-2.2-170.45,14.65-43.06,13-83.28,31.87-120,57.89-35.58,25.19-65.85,55.7-89.81,92.14A305.13,305.13,0,0,0,5.13,282.87a321.45,321.45,0,0,0,.81,118.71A316.06,316.06,0,0,0,51.18,513.43,364.92,364.92,0,0,0,133,603.06c23.68,18.65,49.06,34.5,76.6,46.59,16,7,32.7,12.32,49,18.64,2,.77,4.31,2.79,4.92,4.72,3.08,9.83,5.42,19.89,8.52,29.71,1.41,4.5,3.25,9.22,6.16,12.82,11,13.59,26,20.82,42.39,25.9,11.58,3.6,22.9,6,34.22-1,1.59-1,4.64-.75,6.51.07,13.88,6.16,28.5,9,43.5,10.58,20.75,2.15,41.32.17,61.72-3.15,30.56-5,61-10.54,91.48-16.07a38.51,38.51,0,0,0,20-10.49,97.16,97.16,0,0,0-18.51,2.05,921.57,921.57,0,0,1-123.69,20.12c-23.6,2.24-46.95-.16-69.21-9.21-8-3.24-15.11-7.74-20.55-14.59-5.18-6.53-6.7-13.75-3.57-21.55,6.06-15.07,16.38-26.18,32.5-29.67,8.07-1.74,16.84-1,25.24-.42,17.92,1.19,35.89,2.33,53.68,4.72,21.61,2.9,43,7.19,64.58,10.59a24.44,24.44,0,0,0,18.16-3.72l-67.35-12.19-.05-.9c1.47-.56,2.94-1.1,4.39-1.69,18.79-7.68,38-14.56,56.29-23.19,47.48-22.35,85.66-55.93,115.47-99A384.82,384.82,0,0,0,705,405.69C713,369.3,715.6,332.58,711.69,295.44Zm-435,323.46a16.16,16.16,0,0,1-3.83-1.09c-3.77-1.21-5.66-3.11-4.7-7.7,1.55-7.41,2.28-15,3.35-22.41,19.16,12,39.08,18.27,62.48,12.12-4.28,6.29-8.14,12.39-12.51,18.09a8.44,8.44,0,0,1-6,3C302.58,620.52,289.66,619.68,276.73,618.9Zm418.5-208c-13,53.52-35.78,102.4-70.22,145.52-31.24,39.12-70.77,67.35-116.88,86.38-15.53,6.41-31.56,11.57-47.2,17.73-7.89,3.1-15.6,3.25-23.89,2.11-14.82-2-29.75-4-44.75-.79-1.07.23-3.09-.94-3.7-2a34,34,0,0,0-15.67-14.22c-8.15-3.75-16.39-7.36-24.8-10.46-7.06-2.6-14.4-4-22.08-2.32-2.64.57-5.52.09-8.28.09,15.32-12.9,23.32-29.64,30.8-46.55,9-20.25,14-41.31,10.25-63.7-1.53-9-4.14-17.47-12.35-24.05,1.31,6.8,2.23,12.92,3.7,18.92,4.18,17.08,2.14,33.72-3.06,50.21-.67,2.12-1.64,4.26-4.09,2.59-12.78-8.66-28.39-14-35.21-29.74l-2.25-5.15,24.06-4.37c0-.78,0-1.55,0-2.33-6.75-.67-13.64-2.53-20.23-1.79-17.19,1.94-34.41,4.23-51.31,7.85-24.09,5.16-48.25,8-72.88,7.66-7.11-.1-14.24,1.16-21.35,1.86a12.23,12.23,0,0,0-2.65.91l-.1,1.43c6.48,1.12,12.93,2.95,19.45,3.23a275.08,275.08,0,0,0,76.4-7c1.27-.3,2.59-.45,4.18-.72a44.63,44.63,0,0,1,3.39,23c-2.44,21.67-5.49,43.28-7.21,65-.81,10.3.86,20.79,1.43,31.62-7.34-2.9-15.33-5.91-23.21-9.18-29.16-12.11-57-26.68-82.75-45a366.87,366.87,0,0,1-55.18-48.3,344.39,344.39,0,0,1-53.4-74.51A305.25,305.25,0,0,1,14.11,400,315.1,315.1,0,0,1,9,318.9,301.34,301.34,0,0,1,83.78,138.53C125.45,90.77,177,57.51,236,35.26A412.87,412.87,0,0,1,350.09,9.55c52-4,102.87,1.85,151.91,19.92,42.8,15.77,80.41,39.87,112,73.08,47.73,50.19,76.36,109.88,87.37,177.94C708.44,324.26,705.72,367.83,695.23,410.92Z"/><path class="cls-3" d="M120.24,245c1.48-6.69,2.37-12.78,4.18-18.6,6.45-20.72,8.64-42,8.93-63.56a52,52,0,0,0-.41-6.47c-.78-6.84-3.84-9.66-10.72-10-1.25-.06-2.5-.16-4-.27,6.82-8.11,17.76-6.91,21.55,2.29A24.71,24.71,0,0,1,141.87,159c-1.21,17.4-2.88,34.76-4.39,52.14a3.37,3.37,0,0,0,.64,2.64c14.23-14.17,28.91-27.92,42.57-42.63,10.6-11.42,15.2-25.58,14.21-41.38-.29-4.61-.05-9.25-.05-14.29A24.44,24.44,0,0,1,203,129.94c2.17,12-1,23.16-6.61,33.63-8.45,15.88-21.43,28-34.79,39.53a295.92,295.92,0,0,0-35.78,37.46c-1,1.28-2.21,2.48-3.36,3.68C122.27,244.45,121.88,244.46,120.24,245Z"/><path class="cls-3" d="M554.81,214.05c7.3-2.56,14-4.42,20.3-7.28a75,75,0,0,0,13.74-8.71c1.71-1.29,2.86-3.74,3.54-5.88,2.1-6.62-1.09-10.13-7.66-7.89-16.05,5.45-27.66,16.1-33,32.28-4.15,12.51,3.75,20.79,16.48,17.43,6.29-1.66,12.21-5.11,18-8.35,6.06-3.42,11.71-7.54,18.44-11.94-1.57,7.42-5.51,12.25-10.08,16.38a54,54,0,0,1-24.6,12.72c-18.51,4.13-32-9.2-26.81-27.4,5.83-20.38,20-33.6,40.12-39.64,12.75-3.84,21.63,5.89,17.49,18.62-4.29,13.15-15.14,18.8-27.62,21.92A24.86,24.86,0,0,1,554.81,214.05Z"/><path class="cls-3" d="M277.16,216c-3.11,4.36-5.74,9.21-9.45,13a48.91,48.91,0,0,1-30.3,15c-15,1.6-26.07-10.13-23-25,4.3-21.12,18.58-33.87,37.7-42a22.22,22.22,0,0,1,5.32-1.28c10-1.49,17.37,5.15,15.79,15.12a30.77,30.77,0,0,1-6,13.32c-8.2,10.67-28.26,17.4-40.18,10.39,6.67-2.4,13.09-4.26,19.1-7,5.06-2.31,9.72-5.53,14.4-8.6a6.79,6.79,0,0,0,2.85-4c.47-3.11,1.12-6.77-.12-9.3-.61-1.24-5.64-1.37-8.11-.45-14.44,5.35-24.73,15.37-30.84,29.48a23.6,23.6,0,0,0-1.49,8.79c-.11,7.08,4.38,11.52,11.45,11.75,7.32.24,13.68-2.64,19.66-6.37,7.32-4.57,14.46-9.41,21.68-14.13Z"/><path class="cls-3" d="M423.91,239.83c3.08-19.42,12.44-35.81,13.85-54.61l-7.4.87c.23-.79.22-1.4.51-1.67,3.12-2.85,5.93-7.39,10.92-5.11,5.21,2.38,4.51,7.63,4,12.31-.24,2.46-.82,4.88-1.32,7.72,3.52-3.38,6.49-6.87,10.08-9.53,5.3-3.94,10.67-8.12,16.67-10.7,8.72-3.76,15,.95,13.68,10.3-1.05,7.68-3.82,15.12-5.69,22.7-1.82,7.37-3.46,14.78-5.52,23.66l10.19-3.8,1.07,1.08c-2.77,3-5.17,6.5-8.41,8.87-4.16,3.05-9.14.9-9.68-4.26a46.13,46.13,0,0,1,.71-14.83c2.06-9.07,5-17.93,7.53-26.91.77-2.8,1.13-5.71,2-10-3.66,1.67-6.14,2.46-8.26,3.82A73.61,73.61,0,0,0,443.75,217C439,225.75,432.14,232.62,423.91,239.83Z"/><path class="cls-3" d="M537.76,192.88c-.25-5.7-2.7-8.37-8.27-7.87a47.3,47.3,0,0,0-12.07,2.75c-5,1.85-6,4.05-3.25,8.87,3.11,5.44,7.16,10.36,10.87,15.45,2.34,3.22,5.27,6.09,7.12,9.56,5.44,10.18.28,19.88-11,21.33-10.35,1.32-22.27-3.92-29.42-13.55,6.11,1.15,11.39,2.19,16.69,3.14,3.27.59,6.6,1.61,9.83,1.41,2.34-.15,5.46-1.44,6.57-3.24.92-1.5.08-4.92-1.13-6.72-2.57-3.86-6.17-7-8.81-10.82-3.48-5-7.14-10.11-9.48-15.68-3.11-7.41-.74-13.3,6.52-16.54a57.67,57.67,0,0,1,16.69-4.59c7.52-.86,13.22,4.75,12.55,11.42-.19,1.91-1.33,3.71-2,5.56Z"/><path class="cls-3" d="M206.39,179.93c-1.77,6.65-3.22,13.4-5.39,19.9-2.91,8.67-6.44,17.13-9.55,25.73-.65,1.82-.66,3.88-1.12,6.82l14.81-6.5c-2.84,6.57-6.27,12.49-12.93,15.4-5.3,2.31-9.9-.4-10.34-6.22a32,32,0,0,1,.87-10.37c4.34-16.48,10.45-32.17,21.52-45.44Z"/><path class="cls-3" d="M223.34,150.57c.49,1.94,1.13,4.42,1.91,7.5l-5.74-1.93L212,166l-1.14-.4c.22-2.52.57-5,.6-7.56,0-2.12,2.35-5.39-3.93-5.22,8.17-4.82,2.21-11.46,4.42-17.26l5.47,4.18,7.43-10.35v8.65l21.46-5.2c.3.75.61,1.51.91,2.27Z"/><path class="cls-3" d="M250.55,166.1c4.87-8,11.5-13,19.76-16.47C269.41,161.28,262.3,167.31,250.55,166.1Z"/><path class="cls-3" d="M410,204.33c2.14-5.92,4.4-11.9,5.56-18.06,1.25-6.59-2.67-11.49-8.61-12.43-11.21-1.78-28.44,7.1-33.13,17.34-1.06,2.3-1.15,5-1.92,8.67,9.22-8.14,17.88-14.2,28.33-17.1,6-1.67,8,.29,6.18,6.23-2,6.47-4.66,12.72-7,19-17.08-5.17-39.73,6.59-45.11,22.88-2.37,7.2,1.2,12.85,8.68,12.41a33.67,33.67,0,0,0,13.69-3.86c5.4-2.91,10.09-7.14,15.07-10.79-.26,4.55-1,9.9,4.86,12,6.53,2.36,11.39-1.57,16-6.21-2.25,0-4.51,0-6.77,0-6-.16-6.8-.72-4.93-6.34C403.58,220.05,407.12,212.3,410,204.33Zm-15.95,14.43c-8.3,5.44-17,10.24-25.72,15.06-1.55.86-3.65.75-5.78,1.13C365.1,224.67,385,211,398.3,210.4,396.74,213.64,396.16,217.37,394.05,218.76Z"/><path class="cls-3" d="M366.22,147.38c2.76-5.74,4.85-11.79,7.25-17.7L372,129c-18.52,13.55-21.58,36.42-32.1,54.88-5.67-6.14-12.17-7.39-20-3.54-12.17,6-22.82,14.13-29.83,25.78a56.51,56.51,0,0,0-6.89,19.95c-1.13,7.25,4.36,12.18,11.78,12.41,7.6.24,13.81-3.3,19.56-7.7,4.12-3.15,7.95-6.67,12.48-10.5-.76,2.8-1.43,4.85-1.85,6.95a38.71,38.71,0,0,0-.87,6.42c-.16,5.37,2.81,8.66,7.89,9s11-3.19,13.36-8.1l-13.16.76c1.22-4.91,1.95-8.61,3.07-12.2C343.53,197,354.38,172,366.22,147.38Zm-34.91,58.39q-12.18,9.91-24.42,19.75a10.74,10.74,0,0,1-2.55,1.55c-3.74,1.56-8.25,5.24-11.32,1.62-1.79-2.09-.94-7.82.55-11.08,7.7-16.89,21.74-26.87,38.63-33.22,1.89-.72,4.39.18,7.55.39-2.75,7.27-5,13.33-7.33,19.37A4,4,0,0,1,331.31,205.77Z"/></g></svg>
